<svg width="140" height="39" viewBox="0 0 140 39" fill="none" xmlns="http://www.w3.org/2000/svg">
<g clip-path="url(#clip0_1932_5766)">
<path d="M14.18 38.1561C13.4171 38.1561 12.8641 37.9897 12.5251 37.653C12.182 37.3202 12.0125 36.8091 12.0125 36.1356V5.49898H2.00208C1.23919 5.49898 0.71445 5.34844 0.427863 5.0513C0.141276 4.7502 0 4.24309 0 3.53393V2.01656C0 1.3074 0.141276 0.796323 0.427863 0.479378C0.71445 0.162434 1.23919 0 2.00208 0H29.3328C30.0957 0 30.6285 0.162434 30.9313 0.479378C31.238 0.792361 31.3955 1.30343 31.3955 2.01656V3.53393C31.3955 4.24309 31.238 4.7502 30.9313 5.0513C30.6245 5.3524 30.0957 5.49898 29.3328 5.49898H19.3265V36.1356C19.3265 36.8131 19.161 37.3202 18.8381 37.653C18.5192 37.9897 17.9581 38.1561 17.1549 38.1561H14.176H14.18Z" fill="white"/>
<path d="M37.9626 38.1561C37.1998 38.1561 36.6548 37.9897 36.3319 37.653C36.005 37.3202 35.8435 36.8091 35.8435 36.1356V2.07202C35.8435 1.36286 36.005 0.839903 36.3319 0.503149C36.6548 0.170358 37.1998 0 37.9626 0H40.99C41.7529 0 42.3059 0.170358 42.6449 0.503149C42.984 0.839903 43.1575 1.36286 43.1575 2.07202V36.1356C43.1575 36.8131 42.992 37.3202 42.6691 37.653C42.3503 37.9897 41.7892 38.1561 40.9859 38.1561H37.9586H37.9626Z" fill="white"/>
<path d="M52.0823 38.1561C51.3194 38.1561 50.7624 37.9898 50.4152 37.653C50.0721 37.3202 49.9026 36.8091 49.9026 36.1356V12.7372C49.9026 12.1746 49.9954 11.7824 50.1892 11.5566C50.3789 11.3308 50.7785 11.2198 51.392 11.2198H54.6454C55.485 11.2198 55.925 11.5962 55.9653 12.341L56.0743 14.5874C58.6697 11.7824 62.3873 10.376 67.227 10.376C70.3149 10.376 72.8013 11.1921 74.6863 12.8204C76.5754 14.4487 77.5199 16.8931 77.5199 20.1497V36.1356C77.5199 36.8131 77.3544 37.3202 77.0315 37.653C76.7046 37.9898 76.1597 38.1561 75.4008 38.1561H72.3735C71.6106 38.1561 71.0576 37.9898 70.7185 37.653C70.3754 37.3202 70.2059 36.8091 70.2059 36.1356V20.5935C70.2059 18.7592 69.778 17.4636 68.9183 16.699C68.0585 15.9304 66.678 15.5422 64.7728 15.5422C62.7546 15.5422 60.9907 16.077 59.4851 17.1427C57.9755 18.2124 57.2247 19.5872 57.2247 21.2709V36.1356C57.2247 36.8131 57.0592 37.3202 56.7363 37.653C56.4174 37.9898 55.8563 38.1561 55.0531 38.1561H52.0863H52.0823Z" fill="white"/>
<path d="M96.6123 39C93.3711 39 90.929 38.1244 89.2862 36.3654C87.6474 34.6064 86.832 32.1738 86.832 29.0678V16.4969H83.5786C82.8158 16.4969 82.3072 16.3662 82.0569 16.1008C81.8107 15.8353 81.6855 15.348 81.6855 14.6389V13.1294C81.6855 12.4163 81.8066 11.9171 82.0569 11.6358C82.3112 11.3545 82.8158 11.2159 83.5786 11.2159H86.832V8.13754C86.832 7.3531 86.9733 6.61225 87.2599 5.91893C87.5465 5.22561 87.9945 4.35798 88.604 3.31206C88.8341 2.86042 89.0521 2.57517 89.262 2.44443C89.4678 2.31369 89.8432 2.24634 90.38 2.24634H92.2651C92.9472 2.24634 93.4356 2.40877 93.7182 2.72572C94.0048 3.0387 94.1461 3.51411 94.1461 4.15197V11.2159H100.899C101.662 11.2159 102.166 11.3545 102.413 11.6358C102.659 11.9171 102.784 12.4163 102.784 13.1294V14.6389C102.784 15.348 102.659 15.8353 102.413 16.1008C102.166 16.3662 101.662 16.4969 100.899 16.4969H94.1461V28.838C94.1461 30.5614 94.4528 31.8054 95.0623 32.5779C95.6718 33.3425 96.7213 33.7268 98.2067 33.7268C99.0826 33.7268 99.8253 33.6238 100.435 33.4218C101.044 33.2118 101.714 32.8671 102.437 32.3798C102.627 32.2293 102.837 32.158 103.067 32.158C103.297 32.158 103.527 32.3283 103.757 32.6611L105.412 35.3512C105.565 35.5374 105.638 35.7434 105.638 35.9692C105.638 36.2307 105.448 36.4882 105.065 36.7537C102.699 38.2512 99.8778 39 96.6042 39H96.6123Z" fill="white"/>
<path d="M124.452 39.0001C119.495 39.0001 115.672 37.7204 112.98 35.1611C110.292 32.5978 108.952 29.1074 108.952 24.6861C108.952 20.2647 110.292 16.7862 112.98 14.219C115.672 11.6557 119.495 10.3721 124.452 10.3721C129.408 10.3721 133.235 11.6557 135.939 14.219C138.648 16.7823 140 20.2726 140 24.6861C140 29.0995 138.648 32.5978 135.939 35.1611C133.235 37.7204 129.408 39.0001 124.452 39.0001ZM124.452 33.7269C127.152 33.7269 129.211 32.9583 130.623 31.4251C132.036 29.8919 132.742 27.6455 132.742 24.69C132.742 21.7345 132.036 19.5595 130.623 18.0461C129.211 16.5287 127.152 15.768 124.452 15.768C121.751 15.768 119.733 16.5287 118.304 18.0461C116.875 19.5595 116.161 21.7741 116.161 24.69C116.161 27.6059 116.875 29.8483 118.304 31.4013C119.733 32.9544 121.779 33.7309 124.452 33.7309V33.7269Z" fill="white"/>
<path d="M124.819 34.7649C130.738 34.7649 135.536 30.4227 135.536 25.0664C135.536 19.7101 130.738 15.3679 124.819 15.3679C118.9 15.3679 114.102 19.7101 114.102 25.0664C114.102 30.4227 118.9 34.7649 124.819 34.7649Z" fill="white"/>
<mask id="mask0_1932_5766" style="mask-type:luminance" maskUnits="userSpaceOnUse" x="114" y="16" width="21" height="16">
<path d="M134.777 16.7625H114.865V31.7618H134.777V16.7625Z" fill="white"/>
</mask>
<g mask="url(#mask0_1932_5766)">
<path d="M129.348 18.1966C128.036 17.2933 126.437 16.7625 124.706 16.7625C120.217 16.7625 116.568 20.34 116.568 24.7494C116.568 24.9713 116.584 25.1932 116.601 25.415C115.168 27.2335 114.748 28.8618 115.41 30.0147C115.939 30.918 117.097 31.4053 118.712 31.4053C119.103 31.4053 119.527 31.3736 119.979 31.3181C122.118 31.0368 124.633 30.1335 127.059 28.7588C128.597 27.8872 129.953 26.9086 131.051 25.9182C131.592 25.4309 132.064 24.9555 132.468 24.484C132.528 24.4087 132.589 24.3335 132.649 24.274C134.143 22.4556 134.712 20.7124 133.99 19.4961C133.328 18.3274 131.685 17.8836 129.352 18.1966H129.348ZM116.193 29.571C115.801 28.8895 116.027 27.8713 116.81 26.6709C117.186 28.1487 117.985 29.4798 119.071 30.502C117.626 30.5773 116.601 30.2524 116.193 29.571ZM132.601 22.8399C132.222 21.3463 131.426 20.0309 130.341 18.9969C131.786 18.9216 132.827 19.2505 133.219 19.9279C133.61 20.5935 133.384 21.6434 132.601 22.8399Z" fill="url(#paint0_linear_1932_5766)"/>
</g>
<mask id="mask1_1932_5766" style="mask-type:luminance" maskUnits="userSpaceOnUse" x="120" y="25" width="14" height="8">
<path d="M133.162 25.4268H120.782V32.6135H133.162V25.4268Z" fill="white"/>
</mask>
<g mask="url(#mask1_1932_5766)">
<path d="M127.689 29.3767C125.428 30.6603 123.079 31.5359 121.033 31.8766C122.147 32.4233 123.398 32.7363 124.706 32.7363C128.956 32.7363 132.452 29.5272 132.811 25.4426C131.56 26.8055 129.8 28.1802 127.689 29.3767Z" fill="#19183A"/>
</g>
</g>
<defs>
<linearGradient id="paint0_linear_1932_5766" x1="115.103" y1="24.0839" x2="134.3" y2="24.0839" gradientUnits="userSpaceOnUse">
<stop stop-color="#715F87"/>
<stop offset="1" stop-color="#19183A"/>
</linearGradient>
<clipPath id="clip0_1932_5766">
<rect width="140" height="39" fill="white"/>
</clipPath>
</defs>
</svg>
