<?xml version="1.0" encoding="UTF-8"?><svg id="Layer_1" xmlns="http://www.w3.org/2000/svg" xmlns:xlink="http://www.w3.org/1999/xlink" viewBox="0 0 346.84 98.44"><defs><style>.cls-1{fill:#19183a;}.cls-2{fill:#fff;}.cls-3{fill:none;}.cls-4{clip-path:url(#clippath-1);}.cls-5{clip-path:url(#clippath);}</style><clipPath id="clippath"><rect class="cls-3" x="284.57" y="42.31" width="49.33" height="37.86"/></clipPath><clipPath id="clippath-1"><rect class="cls-3" x="299.23" y="64.18" width="30.67" height="18.14"/></clipPath></defs><path class="cls-1" d="M35.13,96.31c-1.89,0-3.26-.42-4.1-1.27-.85-.84-1.27-2.13-1.27-3.83V13.88H4.96c-1.89,0-3.19-.38-3.9-1.13-.71-.76-1.06-2.04-1.06-3.83v-3.83c0-1.79.35-3.08,1.06-3.88C1.77.41,3.07,0,4.96,0h67.71c1.89,0,3.21.41,3.96,1.21.76.79,1.15,2.08,1.15,3.88v3.83c0,1.79-.39,3.07-1.15,3.83s-2.07,1.13-3.96,1.13h-24.79v77.33c0,1.71-.41,2.99-1.21,3.83-.79.85-2.18,1.27-4.17,1.27h-7.38.01Z"/><path class="cls-1" d="M94.05,96.31c-1.89,0-3.24-.42-4.04-1.27-.81-.84-1.21-2.13-1.21-3.83V5.23c0-1.79.4-3.11,1.21-3.96.8-.84,2.15-1.27,4.04-1.27h7.5c1.89,0,3.26.43,4.1,1.27.84.85,1.27,2.17,1.27,3.96v85.98c0,1.71-.41,2.99-1.21,3.83-.79.85-2.18,1.27-4.17,1.27h-7.5.01Z"/><path class="cls-1" d="M129.03,96.31c-1.89,0-3.27-.42-4.13-1.27-.85-.84-1.27-2.13-1.27-3.83v-59.06c0-1.42.23-2.41.71-2.98.47-.57,1.46-.85,2.98-.85h8.06c2.08,0,3.17.95,3.27,2.83l.27,5.67c6.43-7.08,15.64-10.63,27.63-10.63,7.65,0,13.81,2.06,18.48,6.17,4.68,4.11,7.02,10.28,7.02,18.5v40.35c0,1.71-.41,2.99-1.21,3.83-.81.85-2.16,1.27-4.04,1.27h-7.5c-1.89,0-3.26-.42-4.1-1.27-.85-.84-1.27-2.13-1.27-3.83v-39.23c0-4.63-1.06-7.9-3.19-9.83-2.13-1.94-5.55-2.92-10.27-2.92-5,0-9.37,1.35-13.1,4.04-3.74,2.7-5.6,6.17-5.6,10.42v37.52c0,1.71-.41,2.99-1.21,3.83-.79.85-2.18,1.27-4.17,1.27h-7.36Z"/><path class="cls-1" d="M239.35,98.44c-8.03,0-14.08-2.21-18.15-6.65-4.06-4.44-6.08-10.58-6.08-18.42v-31.73h-8.06c-1.89,0-3.15-.33-3.77-1-.61-.67-.92-1.9-.92-3.69v-3.81c0-1.8.3-3.06.92-3.77.63-.71,1.88-1.06,3.77-1.06h8.06v-7.77c0-1.98.35-3.85,1.06-5.6s1.82-3.94,3.33-6.58c.57-1.14,1.11-1.86,1.63-2.19.51-.33,1.44-.5,2.77-.5h4.67c1.69,0,2.9.41,3.6,1.21.71.79,1.06,1.99,1.06,3.6v17.83h16.73c1.89,0,3.14.35,3.75,1.06s.92,1.97.92,3.77v3.81c0,1.79-.31,3.02-.92,3.69s-1.86,1-3.75,1h-16.73v31.15c0,4.35.76,7.49,2.27,9.44,1.51,1.93,4.11,2.9,7.79,2.9,2.17,0,4.01-.26,5.52-.77,1.51-.53,3.17-1.4,4.96-2.63.47-.38.99-.56,1.56-.56s1.14.43,1.71,1.27l4.1,6.79c.38.47.56.99.56,1.56,0,.66-.47,1.31-1.42,1.98-5.86,3.78-12.85,5.67-20.96,5.67h.02Z"/><path class="cls-1" d="M308.32,98.44c-12.28,0-21.75-3.23-28.42-9.69-6.66-6.47-9.98-15.28-9.98-26.44s3.32-19.94,9.98-26.42c6.67-6.47,16.14-9.71,28.42-9.71s21.76,3.24,28.46,9.71c6.71,6.47,10.06,15.28,10.06,26.42s-3.35,19.97-10.06,26.44c-6.7,6.46-16.18,9.69-28.46,9.69ZM308.32,85.13c6.69,0,11.79-1.94,15.29-5.81s5.25-9.54,5.25-17-1.75-12.95-5.25-16.77c-3.5-3.83-8.6-5.75-15.29-5.75s-11.69,1.92-15.23,5.75c-3.54,3.82-5.31,9.41-5.31,16.77s1.77,13.02,5.31,16.94,8.61,5.88,15.23,5.88h0Z"/><ellipse class="cls-1" cx="309.23" cy="63.27" rx="26.55" ry="24.48"/><g class="cls-5"><path class="cls-2" d="M320.45,45.93c-3.25-2.28-7.21-3.62-11.5-3.62-11.12,0-20.16,9.03-20.16,20.16,0,.56.04,1.12.08,1.68-3.55,4.59-4.59,8.7-2.95,11.61,1.31,2.28,4.18,3.51,8.18,3.51.97,0,2.02-.08,3.14-.22,5.3-.71,11.53-2.99,17.54-6.46,3.81-2.2,7.17-4.67,9.89-7.17,1.34-1.23,2.51-2.43,3.51-3.62.15-.19.3-.38.45-.53,3.7-4.59,5.11-8.99,3.32-12.06-1.64-2.95-5.71-4.07-11.49-3.28h-.01ZM287.86,74.64c-.97-1.72-.41-4.29,1.53-7.32.93,3.73,2.91,7.09,5.6,9.67-3.58.19-6.12-.63-7.13-2.35ZM328.51,57.65c-.94-3.77-2.91-7.09-5.6-9.7,3.58-.19,6.16.64,7.13,2.35.97,1.68.41,4.33-1.53,7.35Z"/></g><g class="cls-4"><path class="cls-2" d="M316.34,74.15c-5.6,3.24-11.42,5.45-16.49,6.31,2.76,1.38,5.86,2.17,9.1,2.17,10.53,0,19.19-8.1,20.08-18.41-3.1,3.44-7.46,6.91-12.69,9.93Z"/></g></svg>